# xmcd
#
# Track frame offsets: 
#        150
#        15804
#        33835
#        48844
#        68087
#        82530
#        101399
#        118924
#        127340
#        140672
#        158321
#        172567
#        190657
#
# Disc length: 3002 seconds
#
# Revision: 0
# Processed by: cddbd v1.5.2PL0 Copyright (c) Steve Scherf et al.
# Submitted via: ExactAudioCopy v0.99pb5
#
DISCID=8c0bb80d
DTITLE=Room Eleven - Mmm...Gumbo?
DYEAR=2008
DGENRE=Blues
TTITLE0=Hey Hey hey
TTITLE1=What will it Bey
TTITLE2=Lalala Love
TTITLE3=Looking at my Feet
TTITLE4=Swimmer
TTITLE5=Ode
TTITLE6=Lovely Morning
TTITLE7=Seeds
TTITLE8=Not Jealous
TTITLE9=Shyness
TTITLE10=Always
TTITLE11=Rainy Day inthe Sun
TTITLE12=A Little of Me
EXTD=
EXTT0=
EXTT1=
EXTT2=
EXTT3=
EXTT4=
EXTT5=
EXTT6=
EXTT7=
EXTT8=
EXTT9=
EXTT10=
EXTT11=
EXTT12=
PLAYORDER=
